{"title":"A Bugs Life 720p For Mobile","uid":7663473,"size":1297578634,"categoryP":"video","categoryS":"handheld","magnet":"?xt=urn:btih:c00ea3ac07a14c644fef38d084bbbe0556f38d4a&amp;dn=A+Bugs+Life+720p+For+Mobile&amp;tr=udp%3A%2F%2Ftracker.openbittorrent.com%3A80&amp;tr=udp%3A%2F%2Fopen.demonii.com%3A1337&amp;tr=udp%3A%2F%2Ftracker.coppersurfer.tk%3A6969&amp;tr=udp%3A%2F%2Fexodus.desync.com%3A6969","seeders":0,"leechers":1,"uploader":"streak447","files":3,"time":1348371157,"description":"[IMG]http://i1232.photobucket.com/albums/ff374/streak447/Movies/A_Bugs_Life_R0_CUSTOM-cd-wwwFreeCoversnet.jpg[/IMG]\n\nDESCRIPTION:\nA misfit ant, looking for &quot;warriors&quot; to save his colony from greedy grasshoppers, recruits a group of bugs that turn out to be an inept circus troupe.\nIMDB Trailer HERE: http://www.imdb.com/video/screenplay/vi294912537/\nGeneral\nComplete name:A Bug's Life [1998] 720p.mp4\nFormat: MPEG-4\nFormat profile: Base Media / Version 2\nCodec ID: mp42\nFile Size: 1.21 GiB\nDuration: 1h 34mn\nOverall bit rate: 1 823 Kbps\nWriting library: AVS\nVideo\nID: 1\nFormat: AVC\nFormat/Info: Advanced Video Codec\nFormat profile: &lt;a class=&quot;__cf_email__&quot; href=&quot;/cdn-cgi/l/email-protection&quot; data-cfemail=&quot;97d5f6e4f2fbfef9f2d7dba6b9a4&quot;&gt;[email&amp;#160;protected]&lt;/a&gt;&lt;script cf-hash='f9e31' type=&quot;text/javascript&quot;&gt;\n/* &lt;![CDATA[ */!function(){try{var t=&quot;currentScript&quot;in document?document.currentScript:function(){for(var t=document.getElementsByTagName(&quot;script&quot;),e=t.length;e--;)if(t[e].getAttribute(&quot;cf-hash&quot;))return t[e]}();if(t&amp;&amp;t.previousSibling){var e,r,n,i,c=t.previousSibling,a=c.getAttribute(&quot;data-cfemail&quot;);if(a){for(e=&quot;&quot;,r=parseInt(a.substr(0,2),16),n=2;a.length-n;n+=2)i=parseInt(a.substr(n,2),16)^r,e+=String.fromCharCode(i);e=document.createTextNode(e),c.parentNode.replaceChild(e,c)}}}catch(u){}}();/* ]]&gt; */&lt;/script&gt;\nFormat settings, CABAC: No\nFormat settings, ReFrames: 1 frame\nCodec ID: avc1\nCodec ID/Info: Advanced Video Coding\nDuration: 1h 34mn\nBit rate: 1 693 Kbps\nWidth: 800 pixels\nHeight: 480 pixels\nDisplay aspect ratio: 1.667\nFrame rate mode: Constant\nFrame rate: 24.000 fps\nColor space: YUV\nChroma subsampling: 4:2:0\nBit depth: 8 bits\nScan type: Progressive\nBits/(Pixel*Frame): 0.184\nStream size: 1.12 GiB (93%)\nLanguage: English\nColor primaries: BT.709\nTransfer characteristics: BT.709\nMatrix coefficients: BT.709\nAudio\nID: 2\nFormat: AAC\nFormat/Info: Advanced Audio Codec\nFormat profile: LC\nCodec ID: 40\nDuration: 1h 34mn\nBit rate mode: Constant\nBit rate: 128 Kbps\nChannel(s): 2 channels\nChannel positions: Front: L R\nSampling rate: 48.0 KHz\nCompression mode: Lossy\nStream size: 85.0 MiB (7%)\nLanguage: English\n[color=lime]\nI hope you enjoy,\n\nAllyoucanbe[/color]","torrent":{"xt":"urn:btih:c00ea3ac07a14c644fef38d084bbbe0556f38d4a","amp;dn":"A+Bugs+Life+720p+For+Mobile","amp;tr":["udp%3A%2F%2Ftracker.openbittorrent.com%3A80","udp%3A%2F%2Fopen.demonii.com%3A1337","udp%3A%2F%2Ftracker.coppersurfer.tk%3A6969","udp%3A%2F%2Fexodus.desync.com%3A6969"],"infoHash":"c00ea3ac07a14c644fef38d084bbbe0556f38d4a","infoHashBuffer":{"type":"Buffer","data":[192,14,163,172,7,161,76,100,79,239,56,208,132,187,190,5,86,243,141,74]},"announce":[],"urlList":[]}}